<?xml version="1.0" encoding="UTF-8"?>
<svg id="Layer_5" data-name="Layer 5" xmlns="http://www.w3.org/2000/svg" xmlns:xlink="http://www.w3.org/1999/xlink" viewBox="0 0 2410 1200">
  <defs>
    <style>
      .cls-1 {
        fill: #36ba98;
      }

      .cls-1, .cls-2, .cls-3, .cls-4, .cls-5 {
        stroke-width: 0px;
      }

      .cls-2 {
        fill: #e76f51;
      }

      .cls-6 {
        filter: url(#drop-shadow-1);
      }

      .cls-3 {
        fill: #e9b824;
      }

      .cls-4 {
        fill: #dd5746;
      }

      .cls-5 {
        fill: #fff;
      }
    </style>
    <filter id="drop-shadow-1" filterUnits="userSpaceOnUse">
      <feOffset dx="0" dy="5"/>
      <feGaussianBlur result="blur" stdDeviation="1"/>
      <feFlood flood-color="#723d3d" flood-opacity=".75"/>
      <feComposite in2="blur" operator="in"/>
      <feComposite in="SourceGraphic"/>
    </filter>
  </defs>
  <g class="cls-6">
    <path class="cls-3" d="M2090.57,634.18c-2.13-5.15,1.44-10.88,7.01-11.22,18.03-1.11,19.83-6,19.83-22.85v-135.69c0-4.49,3.64-8.13,8.13-8.13h3.44c4.49,0,8.13,3.64,8.13,8.13v136.15c0,28.24-5.97,37.73-38.83,38.63-3.35.09-6.42-1.91-7.7-5.01h0ZM2101.11,659.18c-2.16-5.12,1.34-10.84,6.87-11.26,27.02-2.09,39.19-10.97,39.19-44.37v-139.12c0-4.49,3.64-8.13,8.13-8.13h3.21c4.49,0,8.13,3.64,8.13,8.13v140.5c0,33.7-10.8,57.23-57.47,59.59-3.41.17-6.58-1.81-7.91-4.96l-.16-.37Z"/>
    <path class="cls-4" d="M2203.63,473.09h2.54c-4.23,37.22-9.31,72.76-13.96,108.29-5.08,39.76-11.42,86.29-16.07,127.75l-1.69,11.84c-1.27,9.31-2.96,16.92-2.96,30.88,5.08,10.57,9.73,8.46,13.96,8.46h12.27c-1.27,4.23-3.38,7.19-6.77,7.19-6.77,1.27-13.96,1.27-21.15,1.27-2.12,0-5.08.85-6.77-2.12,0-13.11,2.96-26.65,4.65-39.76,8.88-82.91,21.15-158.2,30.46-240.69,0-5.5,2.12-13.11,5.5-13.11ZM2269.87,460.41c9.58,65.71,15.48,123.23,24.29,189.08.85,4.65,5.5,47.8,6.77,52.45,1.27,13.96,2.54,26.65,4.65,40.61,0,4.23,2.12,6.77,1.27,7.19,0,3.38-32.15,3.38-39.34,3.38,0,0-3.81-7.19-3.81-16.5-.85-9.73-.85-35.96-8.04-35.96-12.27,0-31.3-1.27-33.84-1.27-8.88,11.84-.42,51.18-13.96,51.18-6.77,1.27-13.96,1.27-21.15,1.27-2.12,0-5.08.85-6.77-2.12,0-13.11,2.96-26.65,4.65-39.76,8.88-82.91,21.15-158.2,30.46-240.69,0-5.5,2.11-13.11,5.5-13.11,0,0,36.45.13,46.95,0,1.21-.01,2.2,3.13,2.36,4.23ZM2251.01,666.83c2.12,0,3.38-3.38,3.38-4.65,0-13.96-4.65-29.19-4.65-40.61-1.69-19.04-2.54-67.68-10.57-71.49l-2.12,2.54c-3.81,29.19-7.19,59.22-10.58,88.83-1.27,6.77-2.12,12.69-2.12,19.46-1.27,1.27,1.69,3.38,2.12,3.38l24.53,2.54ZM2225.63,717.59c0-3.81.42-6.77,1.27-9.31h.85c6.77.42,19.04.85,27.5.85-2.12,1.27-1.27,13.54-.42,21.57,0,2.54.42,4.23.42,5.92,0,11.42,7.19,24.96,7.19,24.96,4.23,0,15.23,0,26.23-1.27,0,3.81,2.12,5.92,1.27,6.34,0,3.38-32.15,3.38-39.34,3.38,0,0-3.81-7.19-3.81-16.5-.85-9.73-.85-35.96-8.04-35.96h-13.11ZM2236.2,626.65l2.96-28.34.85,8.46.85,14.81c0,6.77.85,13.11,2.12,19.88v-.42c.85,5.5,1.69,11.42,2.12,16.92l-5.92-.42c-.85-6.77-2.12-13.54-2.12-19.04-.42-3.38-.85-7.19-.85-11.84Z"/>
    <path class="cls-2" d="M2340.09,751.4v-77.63c0-1.63-.94-3.12-2.43-3.77-10.31-4.5-23-14.75-23-36.42v-101.56c0-2.28,1.85-4.14,4.14-4.14h33.91c2.28,0,4.14,1.85,4.14,4.14v111.32c0,1.36.02,2.81.06,4.32.16,5.37,8.16,5.28,8.27-.08.03-1.47.04-2.89.04-4.24v-111.32c0-2.28,1.85-4.14,4.14-4.14h33.91c2.28,0,4.14,1.85,4.14,4.14v101.56c0,21.38-12.97,31.61-22.82,36.36-1.41.68-2.3,2.13-2.3,3.7v77.76c0,2.28-1.85,4.14-4.14,4.14h-33.91c-2.28,0-4.14-1.85-4.14-4.14Z"/>
    <g>
      <g>
        <path class="cls-5" d="M1925.36,857.23v-42.64h6.34c2.83,0,5.08.22,6.75.66,1.7.44,3.13,1.19,4.29,2.24,1.18,1.09,2.12,2.44,2.82,4.06.71,1.64,1.07,3.3,1.07,4.97,0,3.06-1.16,5.64-3.47,7.76,2.24.77,4.01,2.13,5.3,4.06,1.31,1.92,1.97,4.14,1.97,6.68,0,3.33-1.17,6.15-3.5,8.45-1.4,1.42-2.98,2.4-4.73,2.96-1.91.53-4.31.8-7.19.8h-9.65ZM1931.73,832.9h2c2.37,0,4.11-.53,5.21-1.59,1.1-1.06,1.65-2.62,1.65-4.68s-.57-3.53-1.7-4.57c-1.13-1.04-2.77-1.56-4.92-1.56h-2.24v12.4ZM1931.73,851.18h3.94c2.88,0,4.99-.57,6.34-1.71,1.42-1.23,2.13-2.8,2.13-4.69s-.68-3.39-2.05-4.64c-1.33-1.23-3.71-1.85-7.14-1.85h-3.23v12.9Z"/>
        <path class="cls-5" d="M1967.53,831.27h18.21v-16.68h6.37v42.64h-6.37v-19.91h-18.21v19.91h-6.37v-42.64h6.37v16.68Z"/>
        <path class="cls-5" d="M2029.72,846.87h-18.07l-4.7,10.36h-6.86l20.89-45.32,20.15,45.32h-6.97l-4.43-10.36ZM2027.12,840.83l-6.26-14.5-6.56,14.5h12.82Z"/>
        <path class="cls-5" d="M2063.39,839.06l13.07,18.17h-7.79l-12.06-17.45h-1.15v17.45h-6.37v-42.64h7.46c5.58,0,9.61,1.06,12.09,3.18,2.73,2.36,4.1,5.47,4.1,9.33,0,3.02-.86,5.62-2.57,7.79-1.71,2.17-3.97,3.56-6.78,4.17ZM2055.46,834.17h2.02c6.03,0,9.05-2.33,9.05-6.99,0-4.36-2.94-6.54-8.8-6.54h-2.27v13.53Z"/>
        <path class="cls-5" d="M2110.29,846.87h-18.07l-4.7,10.36h-6.86l20.89-45.32,20.15,45.32h-6.97l-4.43-10.36ZM2107.69,840.83l-6.26-14.5-6.56,14.5h12.82Z"/>
        <path class="cls-5" d="M2129.66,857.23v-45.54l30.79,32.53v-29.63h6.37v45.24l-30.79-32.45v29.85h-6.37Z"/>
        <path class="cls-5" d="M2185.99,814.59v42.64h-6.37v-42.64h6.37Z"/>
        <path class="cls-5" d="M2198.83,857.23v-42.64h8.86c4.25,0,7.6.42,10.06,1.27,2.64.83,5.04,2.24,7.19,4.22,4.36,4.01,6.54,9.29,6.54,15.83s-2.27,11.86-6.81,15.91c-2.28,2.03-4.67,3.43-7.16,4.23-2.33.79-5.64,1.19-9.93,1.19h-8.75ZM2205.2,851.18h2.87c2.86,0,5.24-.3,7.14-.91,1.9-.64,3.61-1.67,5.14-3.07,3.13-2.89,4.7-6.66,4.7-11.29s-1.55-8.47-4.65-11.38c-2.79-2.6-6.9-3.89-12.33-3.89h-2.87v30.54Z"/>
        <path class="cls-5" d="M2248.54,831.27h18.21v-16.68h6.37v42.64h-6.37v-19.91h-18.21v19.91h-6.37v-42.64h6.37v16.68Z"/>
        <path class="cls-5" d="M2310.73,846.87h-18.07l-4.7,10.36h-6.86l20.89-45.32,20.15,45.32h-6.97l-4.43-10.36ZM2308.14,840.83l-6.26-14.5-6.56,14.5h12.82Z"/>
        <path class="cls-5" d="M2344.4,839.06l13.07,18.17h-7.79l-12.06-17.45h-1.15v17.45h-6.37v-42.64h7.46c5.58,0,9.61,1.06,12.09,3.18,2.73,2.36,4.1,5.47,4.1,9.33,0,3.02-.86,5.62-2.57,7.79-1.71,2.17-3.97,3.56-6.78,4.17ZM2336.47,834.17h2.02c6.03,0,9.05-2.33,9.05-6.99,0-4.36-2.94-6.54-8.8-6.54h-2.27v13.53Z"/>
      </g>
      <g>
        <path class="cls-1" d="M1925.36,857.23v-42.64h6.34c2.83,0,5.08.22,6.75.66,1.7.44,3.13,1.19,4.29,2.24,1.18,1.09,2.12,2.44,2.82,4.06.71,1.64,1.07,3.3,1.07,4.97,0,3.06-1.16,5.64-3.47,7.76,2.24.77,4.01,2.13,5.3,4.06,1.31,1.92,1.97,4.14,1.97,6.68,0,3.33-1.17,6.15-3.5,8.45-1.4,1.42-2.98,2.4-4.73,2.96-1.91.53-4.31.8-7.19.8h-9.65ZM1931.73,832.9h2c2.37,0,4.11-.53,5.21-1.59,1.1-1.06,1.65-2.62,1.65-4.68s-.57-3.53-1.7-4.57c-1.13-1.04-2.77-1.56-4.92-1.56h-2.24v12.4ZM1931.73,851.18h3.94c2.88,0,4.99-.57,6.34-1.71,1.42-1.23,2.13-2.8,2.13-4.69s-.68-3.39-2.05-4.64c-1.33-1.23-3.71-1.85-7.14-1.85h-3.23v12.9Z"/>
        <path class="cls-1" d="M1967.53,831.27h18.21v-16.68h6.37v42.64h-6.37v-19.91h-18.21v19.91h-6.37v-42.64h6.37v16.68Z"/>
        <path class="cls-1" d="M2029.72,846.87h-18.07l-4.7,10.36h-6.86l20.89-45.32,20.15,45.32h-6.97l-4.43-10.36ZM2027.12,840.83l-6.26-14.5-6.56,14.5h12.82Z"/>
        <path class="cls-1" d="M2063.39,839.06l13.07,18.17h-7.79l-12.06-17.45h-1.15v17.45h-6.37v-42.64h7.46c5.58,0,9.61,1.06,12.09,3.18,2.73,2.36,4.1,5.47,4.1,9.33,0,3.02-.86,5.62-2.57,7.79-1.71,2.17-3.97,3.56-6.78,4.17ZM2055.46,834.17h2.02c6.03,0,9.05-2.33,9.05-6.99,0-4.36-2.94-6.54-8.8-6.54h-2.27v13.53Z"/>
        <path class="cls-1" d="M2110.29,846.87h-18.07l-4.7,10.36h-6.86l20.89-45.32,20.15,45.32h-6.97l-4.43-10.36ZM2107.69,840.83l-6.26-14.5-6.56,14.5h12.82Z"/>
        <path class="cls-1" d="M2129.66,857.23v-45.54l30.79,32.53v-29.63h6.37v45.24l-30.79-32.45v29.85h-6.37Z"/>
        <path class="cls-1" d="M2185.99,814.59v42.64h-6.37v-42.64h6.37Z"/>
        <path class="cls-1" d="M2198.83,857.23v-42.64h8.86c4.25,0,7.6.42,10.06,1.27,2.64.83,5.04,2.24,7.19,4.22,4.36,4.01,6.54,9.29,6.54,15.83s-2.27,11.86-6.81,15.91c-2.28,2.03-4.67,3.43-7.16,4.23-2.33.79-5.64,1.19-9.93,1.19h-8.75ZM2205.2,851.18h2.87c2.86,0,5.24-.3,7.14-.91,1.9-.64,3.61-1.67,5.14-3.07,3.13-2.89,4.7-6.66,4.7-11.29s-1.55-8.47-4.65-11.38c-2.79-2.6-6.9-3.89-12.33-3.89h-2.87v30.54Z"/>
        <path class="cls-1" d="M2248.54,831.27h18.21v-16.68h6.37v42.64h-6.37v-19.91h-18.21v19.91h-6.37v-42.64h6.37v16.68Z"/>
        <path class="cls-1" d="M2310.73,846.87h-18.07l-4.7,10.36h-6.86l20.89-45.32,20.15,45.32h-6.97l-4.43-10.36ZM2308.14,840.83l-6.26-14.5-6.56,14.5h12.82Z"/>
        <path class="cls-1" d="M2344.4,839.06l13.07,18.17h-7.79l-12.06-17.45h-1.15v17.45h-6.37v-42.64h7.46c5.58,0,9.61,1.06,12.09,3.18,2.73,2.36,4.1,5.47,4.1,9.33,0,3.02-.86,5.62-2.57,7.79-1.71,2.17-3.97,3.56-6.78,4.17ZM2336.47,834.17h2.02c6.03,0,9.05-2.33,9.05-6.99,0-4.36-2.94-6.54-8.8-6.54h-2.27v13.53Z"/>
      </g>
    </g>
    <path class="cls-1" d="M2014.63,655.15h-15.04l-13.41,23.22-13.41-23.22h-15.7l-12.1,37.28h-47.09l78.61-223.69c1.1-3.12,4.04-5.21,7.35-5.21h24.58c3.52,0,6.65,2.22,7.81,5.54l78.5,223.36h-67.69l-12.43-37.28ZM1985.86,566.86l-17.33,52.97h5.89l11.77,20.6,11.77-20.6h5.23l-17.33-52.97Z"/>
    <rect class="cls-2" x="1872" y="712.3" width="261" height="49" rx="12.74" ry="12.74"/>
    <rect class="cls-1" x="2315" y="457.3" width="95" height="49" rx="14.15" ry="14.15"/>
  </g>
</svg>